# xmcd
#
# Track frame offsets:
#	150
#	18682
#	32411
#	47646
#	63931
#	85815
#	97962
#	106292
#	121515
#	136969
#	153547
#	172807
#
# Disc length: 2474 seconds
# Revision: 0
# Processed by: cddbd v1.5.2PL0 Copyright (c) Steve Scherf et al.
# Submitted via: dBpowerAMP V12.0
#
DISCID=8809a80c
DTITLE=Gary Fletcher - In Solitary
DYEAR=2013
DGENRE=Blues
TTITLE0=If You Were Me
TTITLE1=It Take Love
TTITLE2=Affric
TTITLE3=I Wanna Be With You
TTITLE4=The Same Thing
TTITLE5=Tell Me What I Gotta Do
TTITLE6=Delta T79
TTITLE7=Fall From Grace Blues
TTITLE8=Nobody's Fault
TTITLE9=Nicanda
TTITLE10=I am The Doctor
TTITLE11=Maybellene
EXTD=
EXTT0=
EXTT1=
EXTT2=
EXTT3=
EXTT4=
EXTT5=
EXTT6=
EXTT7=
EXTT8=
EXTT9=
EXTT10=
EXTT11=
PLAYORDER=
